<svg height="654" width="720" xmlns="http://www.w3.org/2000/svg">
<rect height="654" fill="#555" width="720"></rect>
<text fill="#7f7" font-family="Courier New" font-size="12" xml:space="preserve">
<tspan x="10" y="26">5 megabytes installed</tspan>
<tspan x="10" y="42"></tspan>
<tspan x="10" y="58">node_modules</tspan>
<tspan x="10" y="74">└─┬ pug-lint@2.4.0 </tspan>
<tspan x="10" y="90">  ├── acorn@4.0.11 </tspan>
<tspan x="10" y="106">  ├─┬ commander@2.9.0 </tspan>
<tspan x="10" y="122">  │ └── graceful-readlink@1.0.1 </tspan>
<tspan x="10" y="138">  ├── css-selector-parser@1.3.0 </tspan>
<tspan x="10" y="154">  ├── find-line-column@0.5.2 </tspan>
<tspan x="10" y="170">  ├─┬ glob@7.1.1 </tspan>
<tspan x="10" y="186">  │ ├── fs.realpath@1.0.0 </tspan>
<tspan x="10" y="202">  │ ├─┬ inflight@1.0.6 </tspan>
<tspan x="10" y="218">  │ │ └── wrappy@1.0.2 </tspan>
<tspan x="10" y="234">  │ ├── inherits@2.0.3 </tspan>
<tspan x="10" y="250">  │ └── once@1.4.0 </tspan>
<tspan x="10" y="266">  ├─┬ minimatch@3.0.3 </tspan>
<tspan x="10" y="282">  │ └─┬ brace-expansion@1.1.7 </tspan>
<tspan x="10" y="298">  │   ├── balanced-match@0.4.2 </tspan>
<tspan x="10" y="314">  │   └── concat-map@0.0.1 </tspan>
<tspan x="10" y="330">  ├── path-is-absolute@1.0.1 </tspan>
<tspan x="10" y="346">  ├─┬ pug-attrs@2.0.2 </tspan>
<tspan x="10" y="362">  │ ├─┬ constantinople@3.1.0 </tspan>
<tspan x="10" y="378">  │ │ ├── acorn@3.3.0 </tspan>
<tspan x="10" y="394">  │ │ └─┬ is-expression@2.1.0 </tspan>
<tspan x="10" y="410">  │ │   └── acorn@3.3.0 </tspan>
<tspan x="10" y="426">  │ ├── js-stringify@1.0.2 </tspan>
<tspan x="10" y="442">  │ └── pug-runtime@2.0.3 </tspan>
<tspan x="10" y="458">  ├── pug-error@1.3.2 </tspan>
<tspan x="10" y="474">  ├─┬ pug-lexer@2.3.2 </tspan>
<tspan x="10" y="490">  │ ├─┬ character-parser@2.2.0 </tspan>
<tspan x="10" y="506">  │ │ └─┬ is-regex@1.0.4 </tspan>
<tspan x="10" y="522">  │ │   └─┬ has@1.0.1 </tspan>
<tspan x="10" y="538">  │ │     └── function-bind@1.1.0 </tspan>
<tspan x="10" y="554">  │ └─┬ is-expression@3.0.0 </tspan>
<tspan x="10" y="570">  │   └── object-assign@4.1.1 </tspan>
<tspan x="10" y="586">  ├─┬ resolve@1.3.3 </tspan>
<tspan x="10" y="602">  │ └── path-parse@1.0.5 </tspan>
<tspan x="10" y="618">  ├── strip-json-comments@2.0.1 </tspan>
<tspan x="10" y="634">  └── void-elements@2.0.1</tspan>
</text>
</svg>
